<svg width="92" height="92" viewBox="0 0 92 92" fill="none" xmlns="http://www.w3.org/2000/svg">
<path d="M46 8.625C25.3916 8.625 8.625 25.3916 8.625 46C8.625 66.6084 25.3916 83.375 46 83.375C66.6084 83.375 83.375 66.6084 83.375 46C83.375 25.3916 66.6084 8.625 46 8.625ZM54.6591 30.4427L58.9896 34.2269L45.7628 49.3386L41.4323 45.195L54.6591 30.4427ZM34.4874 61.5663L21.8087 48.875L25.875 44.8087L38.5555 57.5L34.4874 61.5663ZM46.1671 61.7083L33.341 48.875L37.4091 44.8105L45.8832 53.2935L65.8519 30.4427L70.1823 34.2269L46.1671 61.7083Z" fill="#2AE31A"/>
</svg>
