<svg width="287" height="274" viewBox="0 0 287 274" fill="none" xmlns="http://www.w3.org/2000/svg">
<path opacity="0.03" d="M45.7293 274C15.8471 274 -5.83769 245.228 2.77139 216.613C7.63988 200.431 17.312 184.641 35.7056 175.065C86.0401 148.857 81.606 156.043 105.332 112.005C129.058 67.9661 193.362 57.5189 227.057 88.54C274.714 132.416 242.658 167.369 272.817 197.527C273.131 197.842 273.44 198.158 273.746 198.475C300.996 226.769 280.49 274 241.209 274H45.7293Z" fill="#292A2E"/>
<path d="M173.287 118.693V95.2199H61.1079V118.693C61.1091 130.967 65.1351 142.902 72.5688 152.669C80.0026 162.436 90.4339 169.496 102.264 172.768C104.001 173.255 105.53 174.297 106.62 175.734C107.709 177.172 108.299 178.926 108.299 180.729C108.299 182.533 107.709 184.287 106.62 185.725C105.53 187.162 104.001 188.204 102.264 188.691C90.4336 191.962 80.0019 199.023 72.5681 208.79C65.1344 218.558 61.1086 230.493 61.1079 242.768V266.241H173.287V242.768C173.285 230.494 169.259 218.558 161.826 208.791C154.392 199.024 143.961 191.964 132.13 188.693C130.394 188.206 128.864 187.164 127.774 185.727C126.685 184.289 126.095 182.535 126.095 180.731C126.095 178.927 126.685 177.173 127.774 175.736C128.864 174.298 130.394 173.257 132.13 172.769C143.961 169.498 154.392 162.438 161.826 152.671C169.26 142.904 173.286 130.969 173.287 118.695" fill="#40A6B4"/>
<path opacity="0.8" d="M173.287 118.693V95.2199H61.1079V118.693C61.1091 130.967 65.1351 142.902 72.5688 152.669C80.0026 162.436 90.4339 169.496 102.264 172.768C104.001 173.255 105.53 174.297 106.62 175.734C107.709 177.172 108.299 178.926 108.299 180.729C108.299 182.533 107.709 184.287 106.62 185.725C105.53 187.162 104.001 188.204 102.264 188.691C90.4336 191.962 80.0019 199.023 72.5681 208.79C65.1344 218.558 61.1086 230.493 61.1079 242.768V266.241H173.287V242.768C173.285 230.494 169.259 218.558 161.826 208.791C154.392 199.024 143.961 191.964 132.13 188.693C130.394 188.206 128.864 187.164 127.774 185.727C126.685 184.289 126.095 182.535 126.095 180.731C126.095 178.927 126.685 177.173 127.774 175.736C128.864 174.298 130.394 173.257 132.13 172.769C143.961 169.498 154.392 162.438 161.826 152.671C169.26 142.904 173.286 130.969 173.287 118.695" fill="white"/>
<path d="M173.641 266.596H60.7537V242.768C60.773 230.421 64.8314 218.418 72.3097 208.593C79.7879 198.768 90.2753 191.659 102.172 188.351C103.833 187.884 105.297 186.887 106.34 185.511C107.383 184.136 107.947 182.457 107.947 180.73C107.947 179.004 107.383 177.325 106.34 175.95C105.297 174.574 103.833 173.577 102.172 173.11C90.2754 169.802 79.7882 162.693 72.31 152.868C64.8318 143.042 60.7732 131.04 60.7537 118.693V94.8656H173.641V118.693C173.622 131.04 169.564 143.042 162.086 152.868C154.608 162.693 144.121 169.802 132.225 173.11C130.563 173.577 129.099 174.574 128.056 175.95C127.014 177.325 126.449 179.004 126.449 180.73C126.449 182.457 127.014 184.136 128.056 185.511C129.099 186.887 130.563 187.884 132.225 188.351C144.121 191.659 154.608 198.768 162.086 208.594C169.563 218.419 173.622 230.421 173.641 242.768V266.596ZM61.4638 265.887H172.933V242.768C172.913 230.576 168.906 218.725 161.522 209.023C154.138 199.321 143.783 192.301 132.037 189.034C130.225 188.526 128.629 187.44 127.492 185.941C126.355 184.442 125.74 182.612 125.74 180.73C125.74 178.849 126.355 177.019 127.492 175.52C128.629 174.021 130.225 172.935 132.037 172.427C143.783 169.16 154.138 162.14 161.522 152.438C168.906 142.737 172.913 130.885 172.933 118.693V95.5743H61.4624V118.693C61.4817 130.885 65.4892 142.736 72.8734 152.438C80.2576 162.14 90.613 169.16 102.36 172.427C104.171 172.935 105.767 174.021 106.903 175.52C108.04 177.019 108.655 178.849 108.655 180.73C108.655 182.612 108.04 184.441 106.903 185.941C105.767 187.44 104.171 188.526 102.36 189.034C90.6129 192.3 80.2574 199.32 72.8732 209.022C65.489 218.724 61.4815 230.576 61.4624 242.768L61.4638 265.887Z" fill="#292A2E"/>
<path d="M179.804 90.9471C179.804 92.0637 179.367 93.1361 178.587 93.9344C177.806 94.7327 176.744 95.1934 175.627 95.2178C175.595 95.2199 175.564 95.2199 175.531 95.2199H59.0543C59.0214 95.2199 58.9909 95.2199 58.9583 95.2178C57.8337 95.1927 56.7645 94.7251 55.9825 93.9165C55.2006 93.1079 54.7691 92.0235 54.7818 90.8987C54.7944 89.7739 55.2501 88.6995 56.0501 87.9087C56.85 87.1179 57.9295 86.6744 59.0543 86.6746H175.53C176.091 86.6744 176.647 86.7848 177.165 86.9994C177.684 87.2141 178.155 87.5287 178.552 87.9255C178.949 88.3222 179.264 88.7933 179.479 89.3117C179.693 89.8302 179.804 90.3859 179.804 90.9471Z" fill="#292A2E"/>
<path d="M119.18 226.865V176.132C119.136 174.205 119.727 172.316 120.861 170.757C121.995 169.198 123.609 168.054 125.456 167.501C145.305 162.039 163.771 144.234 164.678 123.782C164.727 122.685 163.763 121.962 162.665 121.962H71.7289C70.6304 121.962 69.6677 122.685 69.7158 123.782C70.6234 144.234 89.0892 162.039 108.938 167.501C111.747 168.279 115.216 171.721 115.216 176.259V226.869C115.216 230.519 113.841 233.618 111.261 236.198C109.13 238.329 77.0439 266.241 77.0439 266.241H157.351C157.351 266.241 124.968 238.011 123.185 236.227C120.605 233.648 119.18 230.515 119.18 226.865Z" fill="#FAFAFA"/>
<path d="M179.834 269.397C179.835 270.514 179.398 271.586 178.617 272.384C177.836 273.182 176.774 273.643 175.657 273.667C175.625 273.669 175.594 273.669 175.562 273.669H59.0847C59.0521 273.669 59.0217 273.669 58.9891 273.667C57.8645 273.642 56.7953 273.175 56.0133 272.366C55.2314 271.557 54.7999 270.473 54.8125 269.348C54.8251 268.224 55.2808 267.149 56.0806 266.358C56.8805 265.567 57.9599 265.124 59.0847 265.124H175.562C176.695 265.124 177.781 265.574 178.583 266.376C179.384 267.177 179.834 268.264 179.834 269.397Z" fill="#292A2E"/>
<path d="M208.748 273.411C236.25 273.411 258.544 251.116 258.544 223.614C258.544 196.113 236.25 173.818 208.748 173.818C181.246 173.818 158.951 196.113 158.951 223.614C158.951 251.116 181.246 273.411 208.748 273.411Z" fill="white"/>
<path d="M223.274 271.509C196.864 279.518 168.862 264.55 160.852 238.141C152.843 211.731 167.812 183.729 194.221 175.721C220.63 167.712 248.633 182.679 256.642 209.088C264.65 235.497 249.683 263.499 223.274 271.509ZM194.368 176.203C168.225 184.132 153.407 211.851 161.336 237.994C169.265 264.137 196.984 278.955 223.127 271.026C249.27 263.096 264.088 235.377 256.159 209.235C248.23 183.092 220.511 168.274 194.368 176.203Z" fill="#292A2E"/>
<path opacity="0.45" d="M208.748 267.456C232.961 267.456 252.589 247.828 252.589 223.614C252.589 199.401 232.961 179.773 208.748 179.773C184.535 179.773 164.906 199.401 164.906 223.614C164.906 247.828 184.535 267.456 208.748 267.456Z" fill="#40A6B4"/>
<path d="M208.748 226.251C210.203 226.251 211.384 225.07 211.384 223.615C211.384 222.159 210.203 220.978 208.748 220.978C207.292 220.978 206.112 222.159 206.112 223.615C206.112 225.07 207.292 226.251 208.748 226.251Z" fill="#292A2E"/>
<path d="M241.245 241.193C241.213 241.202 241.18 241.206 241.147 241.202C241.114 241.199 241.082 241.189 241.052 241.174L208.629 223.837C208.588 223.816 208.555 223.783 208.531 223.744C208.508 223.705 208.495 223.66 208.495 223.615L208.484 198.053C208.484 197.986 208.511 197.922 208.558 197.875C208.606 197.827 208.67 197.801 208.737 197.801C208.804 197.801 208.868 197.827 208.915 197.875C208.963 197.922 208.989 197.986 208.989 198.053L209 223.463L241.29 240.729C241.334 240.752 241.371 240.788 241.394 240.832C241.418 240.876 241.428 240.926 241.423 240.976C241.418 241.026 241.398 241.073 241.367 241.112C241.335 241.15 241.293 241.178 241.245 241.193Z" fill="#292A2E"/>
<path d="M76.721 152.134C76.721 152.134 75.6863 157.498 70.6637 157.797C65.641 158.096 66.7303 162.098 66.7303 162.098H85.9244V152.508L76.721 152.134Z" fill="#40A6B4"/>
<path d="M87.6724 135.997C87.6724 135.997 89.1118 141.268 84.7369 143.753C80.3621 146.238 83.1069 149.348 83.1069 149.348L100.329 140.876L96.0958 132.271L87.6724 135.997Z" fill="#40A6B4"/>
<path d="M85.8501 139.482L72.8729 90.5169C71.8878 85.1077 73.369 82.7629 75.6539 80.4851C79.6659 76.4834 96.2902 67.9661 96.2902 67.9661L116.234 67.9118C121.522 67.9118 126.723 73.1265 126.723 78.4146C126.723 83.7027 121.347 88.1874 116.057 88.1874L91.4971 90.6399L98.1544 135.474L85.8501 139.482Z" fill="#262626"/>
<path d="M98.1546 135.472L95.5338 117.822L82.2561 125.921L85.8503 139.482L98.1546 135.472Z" fill="#0C0C0C"/>
<path d="M101.164 77.8749C101.164 77.8749 92.7804 79.7435 84.4771 88.0467C79.4428 93.0811 79.8556 102.192 80.6108 119.713L88.8577 107.532L97.903 91.2189L101.164 77.8749Z" fill="#0C0C0C"/>
<path d="M130.193 67.9059L116.648 67.8421L116.643 68.0193H112.542C112.542 68.0193 102.269 77.4728 93.9977 83.4299C87.9814 87.7626 84.3114 91.8933 83.9939 96.3954C83.2196 107.37 74.4883 154.177 74.4883 154.177L87.6289 156.166L99.16 100.229C99.16 100.229 117.192 91.9167 121.363 89.0237C125.29 86.2998 128.064 85.2466 129.364 82.2739C131.609 77.1407 130.193 67.9059 130.193 67.9059Z" fill="#262626"/>
<path d="M114.998 71.3179L93.0251 71.6088L105.351 78.9706L115.608 73.6744C115.856 73.5417 116.051 73.3298 116.164 73.0727C116.276 72.8155 116.299 72.528 116.229 72.2562C116.159 71.9845 115.999 71.7443 115.776 71.5741C115.552 71.404 115.278 71.3137 114.998 71.3179Z" fill="#292A2E"/>
<path opacity="0.2" d="M114.998 71.3179L93.0251 71.6088L105.351 78.9706L115.608 73.6744C115.856 73.5417 116.051 73.3298 116.164 73.0727C116.276 72.8155 116.299 72.528 116.229 72.2562C116.159 71.9845 115.999 71.7443 115.776 71.5741C115.552 71.404 115.278 71.3137 114.998 71.3179Z" fill="white"/>
<path d="M93.1508 31.899L86.9365 52.0364L74.4883 68.3346L81.76 76.6818L96.5696 60.1525C97.2521 59.6131 97.7857 58.9087 98.1203 58.1058L98.3513 57.5477L106.904 36.8511L93.1508 31.899Z" fill="#40A6B4"/>
<path d="M102.725 10.5228C102.725 10.5228 100.221 8.63268 99.6001 4.2819C99.1195 0.913032 102.227 3.09551 102.227 3.09551C102.227 3.09551 101.905 0.666755 103.674 0.907717C105.443 1.14868 106.435 3.7004 106.435 3.7004" fill="#0C0C0C"/>
<path d="M112.821 1.19193C112.821 1.19193 121.602 2.13345 118.428 14.032L117.651 14.0841L116.074 14.1904" fill="#0C0C0C"/>
<path d="M104.195 26.4586C104.234 26.4536 104.662 33.5624 112.921 32.9433C118.638 32.5149 120.676 26.4494 120.807 26.4494C120.191 26.3183 119.429 26.1195 119.126 26.0511C118.466 25.898 117.869 25.5476 117.413 25.0466C116.957 24.5456 116.665 23.9177 116.575 23.2464C116.407 22.2389 116.691 17.0841 116.604 16.0646L107.828 18.0232C107.951 20.1762 108.809 25.1677 105.801 26.0511C105.301 26.1967 104.762 26.331 104.195 26.4586Z" fill="#C97B7B"/>
<path opacity="0.52" d="M107.706 24.0107C107.843 23.5676 107.932 23.1109 107.97 22.6486C108.067 21.5936 108.047 20.5313 107.913 19.4806C109.696 19.2395 111.377 18.5029 112.763 17.3545C112.926 17.9569 113.822 20.5858 113.574 21.1578C113.104 22.2403 110.9 24.0107 107.706 24.0107Z" fill="#0C0C0C"/>
<path d="M109.516 22.6036C112.979 22.2932 117.122 20.1057 117.182 15.4063L117.236 11.1657C117.296 6.46623 114.876 2.62572 110.451 2.56867C106.026 2.51162 102.67 6.2802 102.611 10.9807L102.586 12.8588C102.59 13.5036 102.637 14.1474 102.728 14.7858C102.955 16.4743 103.307 19.0423 104.453 20.779C105.534 22.4172 107.304 22.802 109.516 22.6036Z" fill="#C97B7B"/>
<path opacity="0.52" d="M107.91 18.3081C107.196 18.3405 106.484 18.2044 105.832 17.9108C105.805 17.8985 105.785 17.8765 105.775 17.8495C105.765 17.8226 105.765 17.7927 105.777 17.7662C105.788 17.7397 105.809 17.7186 105.836 17.7073C105.862 17.696 105.892 17.6954 105.919 17.7057C107.324 18.3049 108.6 18.217 109.609 17.4519C109.629 17.4358 109.65 17.4208 109.672 17.4069C109.698 17.3922 109.729 17.3882 109.757 17.396C109.786 17.4037 109.81 17.4225 109.825 17.4482C109.84 17.4739 109.844 17.5044 109.836 17.533C109.828 17.5617 109.809 17.586 109.784 17.6008C109.776 17.6057 109.762 17.616 109.744 17.6298C109.214 18.0335 108.575 18.2696 107.91 18.3081Z" fill="#0C0C0C"/>
<path opacity="0.52" d="M107.943 19.3669C107.814 19.3747 107.685 19.3716 107.556 19.3577C107.527 19.3545 107.5 19.3399 107.481 19.3168C107.462 19.2938 107.454 19.2643 107.457 19.2349C107.46 19.2054 107.474 19.1784 107.497 19.1597C107.521 19.1411 107.55 19.1324 107.579 19.1355C107.782 19.1727 107.99 19.1663 108.189 19.1168C108.389 19.0672 108.576 18.9756 108.737 18.8481C108.758 18.8271 108.787 18.8153 108.816 18.8153C108.846 18.8153 108.874 18.827 108.895 18.8479C108.916 18.8688 108.928 18.8972 108.928 18.9268C108.928 18.9564 108.916 18.9848 108.896 19.0058C108.629 19.2326 108.293 19.3602 107.943 19.3669Z" fill="#0C0C0C"/>
<path d="M104.071 13.7606C104.372 13.7606 104.616 13.5166 104.616 13.2156C104.616 12.9146 104.372 12.6706 104.071 12.6706C103.77 12.6706 103.526 12.9146 103.526 13.2156C103.526 13.5166 103.77 13.7606 104.071 13.7606Z" fill="#0C0C0C"/>
<path d="M109.397 13.4265C109.698 13.4265 109.942 13.1825 109.942 12.8815C109.942 12.5805 109.698 12.3365 109.397 12.3365C109.096 12.3365 108.852 12.5805 108.852 12.8815C108.852 13.1825 109.096 13.4265 109.397 13.4265Z" fill="#0C0C0C"/>
<path d="M116.889 16.8343C118.234 16.8517 119.342 15.4268 119.359 14.082C119.376 12.7372 118.296 11.9821 116.95 11.9648L116.246 12.8588L115.732 16.8216L116.889 16.8343Z" fill="#C97B7B"/>
<path d="M115.551 14.6738C115.551 14.6738 115.097 8.02393 113.081 7.61323C111.738 7.33967 108.481 9.24327 105.464 8.66921C104.145 8.41762 102.892 8.74434 102.765 9.36765C102.714 9.6157 101.892 6.06753 103.958 3.37549C105.604 1.23235 110.988 0.627105 113.438 1.33015C120.221 3.27592 117.228 12.2564 117.228 12.2564L116.926 14.549L115.551 14.6738Z" fill="#0C0C0C"/>
<g opacity="0.52">
<path d="M107.097 16.7386H107.089C106.655 16.7344 105.929 16.6787 105.932 16.3545C105.935 16.0859 106.699 13.1937 106.786 12.8648C106.796 12.8391 106.815 12.8179 106.839 12.8054C106.864 12.7928 106.892 12.7898 106.918 12.7969C106.945 12.8039 106.968 12.8206 106.983 12.8436C106.997 12.8667 107.003 12.8944 106.999 12.9215C106.659 14.2025 106.153 16.1741 106.151 16.3566C106.446 16.4856 106.768 16.541 107.09 16.5179C107.119 16.517 107.147 16.5278 107.168 16.5479C107.19 16.568 107.202 16.5957 107.203 16.6249C107.204 16.6541 107.193 16.6825 107.173 16.7037C107.153 16.725 107.125 16.7374 107.096 16.7383L107.097 16.7386Z" fill="#0C0C0C"/>
</g>
<path d="M105.618 10.2602C105.163 10.135 104.682 10.135 104.227 10.2602C104.003 10.3204 103.79 10.4138 103.594 10.5373C103.4 10.6585 103.222 10.8035 103.065 10.9689C103.036 10.9984 103.019 11.038 103.019 11.0795C103.018 11.1209 103.033 11.161 103.061 11.1914C103.09 11.2218 103.129 11.2402 103.17 11.2426C103.211 11.2451 103.252 11.2314 103.284 11.2046L103.293 11.1961C103.439 11.0611 103.601 10.945 103.775 10.8506C103.947 10.7568 104.131 10.6894 104.323 10.6507C104.7 10.5719 105.091 10.5938 105.457 10.7141L105.472 10.7195C105.533 10.7408 105.599 10.7373 105.657 10.7097C105.714 10.682 105.759 10.6326 105.78 10.5722C105.802 10.5118 105.798 10.4455 105.77 10.3877C105.743 10.3299 105.693 10.2854 105.633 10.2641L105.618 10.2602Z" fill="#0C0C0C"/>
<path d="M108.844 10.5339C109.19 10.3657 109.575 10.2923 109.959 10.3212C110.154 10.3338 110.346 10.376 110.529 10.4463C110.714 10.5166 110.89 10.61 111.052 10.7241L111.063 10.7309C111.097 10.7536 111.14 10.7619 111.18 10.7541C111.221 10.7463 111.257 10.723 111.281 10.6891C111.305 10.6553 111.315 10.6134 111.309 10.5723C111.303 10.5313 111.281 10.4943 111.248 10.469C111.07 10.3258 110.875 10.2056 110.666 10.1115C110.456 10.0152 110.232 9.95102 110.002 9.92117C109.534 9.8575 109.058 9.92141 108.623 10.1061C108.564 10.1316 108.518 10.1794 108.494 10.2389C108.471 10.2985 108.472 10.3649 108.497 10.4236C108.523 10.4824 108.571 10.5286 108.63 10.5521C108.69 10.5756 108.756 10.5746 108.815 10.5491L108.828 10.5427L108.844 10.5339Z" fill="#0C0C0C"/>
<path d="M108.623 3.40597C108.929 1.94085 108.37 0.584539 107.375 0.376573C106.38 0.168606 105.324 1.18773 105.018 2.65285C104.712 4.11797 105.271 5.47427 106.266 5.68224C107.262 5.8902 108.317 4.87109 108.623 3.40597Z" fill="#0C0C0C"/>
<path d="M93.9355 42.0811C94.1956 45.1367 96.04 64.2021 96.2899 67.9661H130.178C130.373 64.5714 131.247 49.7267 131.985 43.0878C132.69 36.753 133.678 33.8699 132.867 31.9015C131.435 28.4288 126.878 26.8789 123.791 26.4611C121.907 26.2059 119.072 26.0231 119.072 26.0231C119.072 26.0231 118.832 30.8778 113.11 31.1478C105.32 31.5156 105.84 26.0231 105.801 26.0231C104.54 26.0231 97.6701 26.9405 95.9525 28.0603C94.9733 28.6558 94.1659 29.4959 93.6099 30.4981C93.0539 31.5003 92.7683 32.63 92.7814 33.776C92.7488 36.0556 93.64 38.6151 93.9355 42.0811Z" fill="#40A6B4"/>
<path d="M95.6536 60.4534C95.6295 60.4533 95.6063 60.4442 95.5885 60.4279C95.5707 60.4116 95.5597 60.3892 95.5576 60.3652L94.2737 45.681C94.2724 45.6683 94.2736 45.6554 94.2772 45.6431C94.2809 45.6308 94.287 45.6194 94.2952 45.6095C94.3033 45.5996 94.3134 45.5914 94.3247 45.5854C94.3361 45.5795 94.3485 45.5758 94.3613 45.5747C94.3741 45.5732 94.3871 45.5742 94.3995 45.5778C94.4119 45.5815 94.4234 45.5876 94.4333 45.5958C94.4433 45.604 94.4514 45.6142 94.4573 45.6257C94.4632 45.6372 94.4667 45.6497 94.4676 45.6626L95.7518 60.3468C95.7529 60.3594 95.7515 60.3721 95.7477 60.3842C95.7439 60.3963 95.7377 60.4076 95.7295 60.4173C95.7214 60.427 95.7114 60.435 95.7001 60.4408C95.6888 60.4467 95.6765 60.4502 95.6639 60.4513L95.6536 60.4534Z" fill="#0C0C0C"/>
<path d="M98.1107 68.9831L102.764 65.2078L101.981 65.4293C101.727 65.4957 101.457 65.4631 101.226 65.3381C100.995 65.2131 100.819 65.0051 100.736 64.756C100.697 64.626 100.685 64.4894 100.701 64.3547C100.717 64.2199 100.76 64.0898 100.828 63.9723C100.896 63.8548 100.987 63.7523 101.096 63.6712C101.204 63.59 101.328 63.5318 101.46 63.5002L111.236 61.1224L112.077 64.2365C112.338 65.2035 112.304 66.2264 111.98 67.1741C111.655 68.1218 111.056 68.9511 110.257 69.5558L106.635 72.2889C106.45 72.4346 106.22 72.5118 105.984 72.5073C105.748 72.5029 105.521 72.4171 105.341 72.2645C105.182 72.1232 105.072 71.9347 105.027 71.7265C104.983 71.5183 105.006 71.3013 105.093 71.1071C105.082 71.104 105.071 71.0985 105.062 71.0911C105.053 71.0837 105.046 71.0745 105.04 71.0641C105.035 71.0537 105.031 71.0423 105.03 71.0305C105.03 71.0188 105.031 71.007 105.035 70.9959L104.368 71.5015C104.161 71.6644 103.901 71.7428 103.639 71.721C103.377 71.6993 103.134 71.5789 102.957 71.3842C102.806 71.2049 102.722 70.9778 102.721 70.7429C102.721 70.508 102.803 70.2803 102.953 70.1001C102.943 70.0983 102.933 70.0949 102.924 70.0898L102.649 70.2974C102.464 70.443 102.234 70.5201 101.998 70.5156C101.762 70.511 101.535 70.4252 101.356 70.2726C101.162 70.1013 101.042 69.8617 101.022 69.604C101.001 69.3463 101.081 69.0906 101.245 68.8906C101.241 68.8849 101.238 68.8788 101.235 68.8726L99.2974 70.4445C99.2014 70.5224 99.0909 70.5807 98.9724 70.616C98.8538 70.6512 98.7295 70.6628 98.6064 70.65C98.4834 70.6372 98.3641 70.6003 98.2553 70.5414C98.1465 70.4824 98.0505 70.4027 97.9725 70.3066C97.8946 70.2106 97.8363 70.1001 97.801 69.9816C97.7658 69.863 97.7542 69.7387 97.767 69.6156C97.7798 69.4926 97.8167 69.3733 97.8756 69.2645C97.9345 69.1557 98.0143 69.0596 98.1103 68.9817L98.1107 68.9831Z" fill="#C97B7B"/>
<path opacity="0.2" d="M101.354 68.9293C101.364 68.9256 101.374 68.92 101.382 68.913L103.246 67.3644C103.265 67.3483 103.276 67.3257 103.278 67.3013C103.28 67.2769 103.273 67.2526 103.257 67.2338C103.241 67.2149 103.219 67.2029 103.195 67.2003C103.17 67.1977 103.146 67.2047 103.127 67.2198L101.262 68.7687C101.245 68.7829 101.234 68.8025 101.23 68.8242C101.226 68.8459 101.23 68.8683 101.241 68.8874C101.252 68.9066 101.269 68.9213 101.29 68.9289C101.31 68.9366 101.333 68.9367 101.354 68.9293Z" fill="#0A0A0A"/>
<path opacity="0.2" d="M102.997 70.0993C103.007 70.0956 103.016 70.0903 103.024 70.0837L104.499 68.8789C104.517 68.8628 104.528 68.8403 104.53 68.8162C104.532 68.7921 104.525 68.7682 104.509 68.7495C104.494 68.7308 104.472 68.7187 104.448 68.7157C104.424 68.7128 104.4 68.7192 104.381 68.7336L102.906 69.9384C102.889 69.9525 102.877 69.9721 102.873 69.9937C102.869 70.0154 102.873 70.0378 102.884 70.057C102.895 70.0761 102.912 70.0909 102.933 70.0986C102.953 70.1064 102.976 70.1066 102.997 70.0993Z" fill="#0A0A0A"/>
<path opacity="0.2" d="M105.154 71.1099C105.165 71.1061 105.175 71.1003 105.184 71.0929L105.867 70.5068C105.876 70.4988 105.884 70.489 105.89 70.478C105.895 70.4671 105.898 70.4551 105.899 70.4428C105.9 70.4306 105.899 70.4183 105.895 70.4066C105.891 70.3949 105.885 70.3841 105.877 70.3748C105.869 70.3655 105.859 70.3579 105.848 70.3524C105.837 70.3468 105.825 70.3435 105.813 70.3426C105.801 70.3417 105.788 70.3432 105.777 70.3471C105.765 70.3509 105.754 70.3571 105.745 70.3651L105.062 70.9508C105.045 70.9652 105.034 70.9848 105.031 71.0064C105.027 71.028 105.031 71.0501 105.042 71.069C105.053 71.0879 105.07 71.1024 105.091 71.1099C105.111 71.1174 105.134 71.1172 105.154 71.1099Z" fill="#0A0A0A"/>
<path d="M139.236 59.7365L139.201 59.5778L133.016 32.2215L120.779 34.9876L125.607 56.3425L106.266 61.0937L108.646 72.0079L134.419 67.0915C134.477 67.0798 134.56 67.0625 134.621 67.0494C135.404 66.8724 136.145 66.5428 136.801 66.0795C137.457 65.6161 138.015 65.0281 138.443 64.349C138.872 63.6699 139.163 62.913 139.299 62.1216C139.435 61.3302 139.413 60.5197 139.236 59.7365Z" fill="#40A6B4"/>
<path d="M106.172 61.1136C106.167 61.0892 106.171 61.0637 106.185 61.0426C106.198 61.0214 106.219 61.0062 106.243 61.0002L125.496 56.272L122.365 42.445C122.36 42.4201 122.364 42.3939 122.378 42.3723C122.392 42.3506 122.413 42.3353 122.438 42.3297C122.463 42.324 122.489 42.3285 122.511 42.3422C122.533 42.3559 122.548 42.3775 122.554 42.4025L125.705 56.3216C125.711 56.3463 125.707 56.3722 125.693 56.3937C125.68 56.4152 125.659 56.4307 125.634 56.4368L106.38 61.1653C106.38 61.1653 106.509 61.728 106.545 61.9169C106.547 61.9411 106.54 61.9652 106.524 61.984C106.509 62.0028 106.487 62.0148 106.463 62.0177C106.438 62.0205 106.414 62.0139 106.395 61.9992C106.375 61.9845 106.362 61.9629 106.359 61.9388C106.314 61.7319 106.172 61.1136 106.172 61.1136Z" fill="#0C0C0C"/>
<path d="M106.926 76.3519L99.4904 53.496C99.3597 53.0943 99.1053 52.7443 98.7636 52.496C98.4218 52.2478 98.0103 52.114 97.5879 52.114H67.2947C66.9789 52.1139 66.6676 52.1886 66.3862 52.332C66.1048 52.4753 65.8614 52.6833 65.6758 52.9388C65.4902 53.1943 65.3678 53.4901 65.3185 53.802C65.2692 54.1139 65.2944 54.4331 65.3921 54.7334L72.828 77.5893C72.9585 77.9911 73.2129 78.3412 73.5547 78.5895C73.8964 78.8377 74.3081 78.9714 74.7305 78.9713H105.024C105.34 78.9713 105.651 78.8965 105.932 78.7531C106.214 78.6097 106.457 78.4017 106.642 78.1462C106.828 77.8908 106.95 77.595 107 77.2831C107.049 76.9713 107.024 76.6522 106.926 76.3519Z" fill="#292A2E"/>
<path opacity="0.2" d="M106.926 76.3519L99.4904 53.496C99.3597 53.0943 99.1053 52.7443 98.7636 52.496C98.4218 52.2478 98.0103 52.114 97.5879 52.114H67.2947C66.9789 52.1139 66.6676 52.1886 66.3862 52.332C66.1048 52.4753 65.8614 52.6833 65.6758 52.9388C65.4902 53.1943 65.3678 53.4901 65.3185 53.802C65.2692 54.1139 65.2944 54.4331 65.3921 54.7334L72.828 77.5893C72.9585 77.9911 73.2129 78.3412 73.5547 78.5895C73.8964 78.8377 74.3081 78.9714 74.7305 78.9713H105.024C105.34 78.9713 105.651 78.8965 105.932 78.7531C106.214 78.6097 106.457 78.4017 106.642 78.1462C106.828 77.8908 106.95 77.595 107 77.2831C107.049 76.9713 107.024 76.6522 106.926 76.3519Z" fill="white"/>
<path d="M85.2863 68.7195C87.041 68.7195 88.4634 67.297 88.4634 65.5423C88.4634 63.7876 87.041 62.3651 85.2863 62.3651C83.5316 62.3651 82.1091 63.7876 82.1091 65.5423C82.1091 67.297 83.5316 68.7195 85.2863 68.7195Z" fill="white"/>
</svg>
