<svg width="176" height="79" viewBox="0 0 176 79" fill="none" xmlns="http://www.w3.org/2000/svg">
<path d="M22.1932 8.40909C22.1932 6.84659 21.6771 5.66288 20.6449 4.85795C19.6127 4.04356 18.2159 3.63636 16.4545 3.63636C15.1667 3.63636 14.0066 3.8447 12.9744 4.26136C11.9422 4.67803 11.0994 5.25095 10.446 5.98011C9.79261 6.70928 9.39015 7.53788 9.23864 8.46591C9.11553 9.24242 9.19602 9.91004 9.48011 10.4688C9.7642 11.018 10.1667 11.4773 10.6875 11.8466C11.2178 12.2064 11.786 12.5047 12.392 12.7415C12.9981 12.9687 13.5568 13.1534 14.0682 13.2955L16.9091 14.0909C17.6193 14.2898 18.41 14.5644 19.2812 14.9148C20.1525 15.2652 20.9669 15.7434 21.7244 16.3494C22.482 16.946 23.0597 17.7131 23.4574 18.6506C23.8646 19.5881 23.9545 20.7386 23.7273 22.1023C23.4621 23.6742 22.8134 25.0947 21.7812 26.3636C20.7585 27.6326 19.4044 28.6411 17.7188 29.3892C16.0426 30.1373 14.0871 30.5114 11.8523 30.5114C9.76894 30.5114 8.01705 30.1752 6.59659 29.5028C5.18561 28.8305 4.14394 27.893 3.47159 26.6903C2.80871 25.4877 2.55303 24.0909 2.70455 22.5H6.34091C6.24621 23.5985 6.46402 24.5076 6.99432 25.2273C7.52462 25.9375 8.26326 26.4678 9.21023 26.8182C10.1572 27.1591 11.2083 27.3295 12.3636 27.3295C13.7083 27.3295 14.9489 27.1117 16.0852 26.6761C17.2311 26.2311 18.178 25.6155 18.9261 24.8295C19.6837 24.0341 20.1477 23.1061 20.3182 22.0455C20.4886 21.0795 20.3561 20.2936 19.9205 19.6875C19.4848 19.0814 18.8551 18.589 18.0312 18.2102C17.2074 17.8314 16.303 17.5 15.3182 17.2159L11.9091 16.1932C9.75 15.5398 8.10701 14.607 6.98011 13.3949C5.86269 12.1828 5.46023 10.5966 5.77273 8.63636C6.05682 7.00757 6.74337 5.58712 7.83239 4.375C8.9214 3.15341 10.2708 2.20644 11.8807 1.53409C13.4905 0.852272 15.2235 0.511363 17.0795 0.511363C18.9545 0.511363 20.5597 0.852272 21.8949 1.53409C23.2301 2.20644 24.2244 3.1392 24.8778 4.33239C25.5313 5.5161 25.7727 6.875 25.6023 8.40909H22.1932ZM34.1214 30.5114C32.7389 30.5114 31.5268 30.2509 30.4851 29.7301C29.4434 29.1998 28.6716 28.4375 28.1697 27.4432C27.6679 26.4394 27.5305 25.2273 27.7578 23.8068C27.9756 22.5568 28.397 21.5436 29.022 20.767C29.647 19.9811 30.4046 19.3655 31.2947 18.9205C32.1944 18.4659 33.1603 18.1297 34.1925 17.9119C35.2341 17.6847 36.2711 17.5095 37.3033 17.3864C38.648 17.2159 39.7417 17.0833 40.5845 16.9886C41.4273 16.8939 42.0618 16.7377 42.4879 16.5199C42.9141 16.3021 43.1745 15.928 43.2692 15.3977V15.2841C43.4964 13.892 43.3118 12.8078 42.7152 12.0312C42.1186 11.2453 41.0533 10.8523 39.5192 10.8523C37.9283 10.8523 36.5978 11.2027 35.5277 11.9034C34.4576 12.6042 33.6669 13.3523 33.1555 14.1477L30.201 13.0114C30.9775 11.6856 31.9055 10.6534 32.9851 9.91477C34.0646 9.16667 35.1963 8.64583 36.38 8.35227C37.5637 8.04924 38.7048 7.89773 39.8033 7.89773C40.504 7.89773 41.2947 7.98295 42.1754 8.15341C43.0561 8.31439 43.88 8.65057 44.647 9.16193C45.4235 9.6733 46.0059 10.4451 46.3942 11.4773C46.7919 12.5095 46.8487 13.892 46.5646 15.625L44.1783 30H40.826L41.3374 27.0455H41.1669C40.8639 27.5189 40.3999 28.0256 39.7749 28.5653C39.1593 29.1051 38.3781 29.5644 37.4311 29.9432C36.4936 30.322 35.3904 30.5114 34.1214 30.5114ZM35.0874 27.5C36.4131 27.5 37.5732 27.2396 38.5675 26.7188C39.5713 26.1979 40.3762 25.5256 40.9822 24.7017C41.5978 23.8778 41.9813 23.0114 42.1328 22.1023L42.6442 19.0341C42.4737 19.2045 42.1375 19.3608 41.6357 19.5028C41.1338 19.6354 40.5656 19.7538 39.9311 19.858C39.3061 19.9527 38.6953 20.0379 38.0987 20.1136C37.5116 20.1799 37.0381 20.2367 36.6783 20.2841C35.7881 20.3977 34.9406 20.5824 34.1357 20.8381C33.3402 21.0843 32.6679 21.4583 32.1186 21.9602C31.5788 22.4527 31.2427 23.125 31.1101 23.9773C30.9112 25.142 31.1906 26.0227 31.9482 26.6193C32.7057 27.2064 33.7521 27.5 35.0874 27.5ZM58.4787 0.90909L53.6491 30H50.2969L55.1264 0.90909H58.4787ZM68.88 30.4545C66.7872 30.4545 65.0589 29.9905 63.6953 29.0625C62.3317 28.125 61.38 26.8182 60.8402 25.142C60.3004 23.4564 60.2152 21.4962 60.5845 19.2614C60.9538 17.0265 61.6877 15.0568 62.7862 13.3523C63.8847 11.6383 65.2531 10.303 66.8913 9.34659C68.5296 8.38068 70.3288 7.89773 72.2891 7.89773C73.4254 7.89773 74.5192 8.08712 75.5703 8.46591C76.6214 8.8447 77.5305 9.46023 78.2976 10.3125C79.0646 11.1553 79.5997 12.2727 79.9027 13.6648C80.2057 15.0568 80.1868 16.7708 79.8459 18.8068L79.6186 20.2273H62.8004L63.255 17.3295H76.6641C76.8819 16.0985 76.825 15 76.4936 14.0341C76.1716 13.0682 75.6082 12.3059 74.8033 11.7472C74.0078 11.1884 72.9993 10.9091 71.7777 10.9091C70.5182 10.9091 69.344 11.25 68.255 11.9318C67.166 12.6042 66.2569 13.4564 65.5277 14.4886C64.7985 15.5114 64.344 16.553 64.1641 17.6136L63.7663 20.1136C63.4822 21.9223 63.5249 23.3617 63.8942 24.4318C64.273 25.5019 64.9311 26.2737 65.8686 26.7472C66.8061 27.2112 67.9804 27.4432 69.3913 27.4432C70.291 27.4432 71.1196 27.3201 71.8771 27.0739C72.6347 26.8182 73.3118 26.4394 73.9084 25.9375C74.505 25.4261 75.0069 24.7917 75.4141 24.0341L78.4822 24.9432C77.9614 26.0417 77.2275 27.0076 76.2805 27.8409C75.343 28.6648 74.2446 29.3087 72.9851 29.7727C71.7351 30.2273 70.3667 30.4545 68.88 30.4545ZM101.444 13.0682L98.2621 13.9205C98.1484 13.4091 97.9496 12.9167 97.6655 12.4432C97.3909 11.9602 96.9647 11.5672 96.3871 11.2642C95.8189 10.9517 95.0424 10.7955 94.0575 10.7955C92.7223 10.7955 91.5623 11.1032 90.5774 11.7188C89.5926 12.3248 89.0291 13.0966 88.8871 14.0341C88.745 14.858 88.9344 15.5161 89.4553 16.0085C89.9761 16.5009 90.8473 16.9034 92.0689 17.2159L95.1939 18.0114C97.0689 18.4943 98.4041 19.2187 99.1996 20.1847C100.004 21.1411 100.279 22.3864 100.023 23.9205C99.8151 25.1705 99.2706 26.2879 98.3899 27.2727C97.5092 28.2576 96.3823 29.0341 95.0092 29.6023C93.6361 30.1705 92.1068 30.4545 90.4212 30.4545C88.1768 30.4545 86.406 29.9716 85.1087 29.0057C83.8113 28.0303 83.12 26.6193 83.0348 24.7727L86.3871 23.9773C86.4723 25.142 86.889 26.0227 87.6371 26.6193C88.3946 27.2064 89.4553 27.5 90.8189 27.5C92.3814 27.5 93.6835 27.1686 94.7251 26.5057C95.7668 25.8333 96.3587 25.0284 96.5007 24.0909C96.6428 23.3239 96.4912 22.6847 96.0462 22.1733C95.6106 21.6619 94.853 21.2784 93.7734 21.0227L90.3075 20.1705C88.3757 19.6875 87.0215 18.9489 86.245 17.9545C85.478 16.9602 85.2223 15.7102 85.478 14.2045C85.6863 12.9735 86.2166 11.8845 87.0689 10.9375C87.9306 9.99053 89.0102 9.24716 90.3075 8.70739C91.6143 8.16761 93.0348 7.89773 94.5689 7.89773C96.728 7.89773 98.3426 8.37121 99.4126 9.31818C100.483 10.2557 101.16 11.5057 101.444 13.0682ZM3.89773 78H0.204545L15.7159 48.9091H19.3523L25.2045 78H21.5114L16.9091 53.5114H16.6818L3.89773 78ZM7.13636 66.6364H22.0227L21.5114 69.7614H6.625L7.13636 66.6364ZM47.5767 61.0682L44.3949 61.9205C44.2813 61.4091 44.0824 60.9167 43.7983 60.4432C43.5237 59.9602 43.0975 59.5672 42.5199 59.2642C41.9517 58.9517 41.1752 58.7955 40.1903 58.7955C38.8551 58.7955 37.6951 59.1032 36.7102 59.7188C35.7254 60.3248 35.1619 61.0966 35.0199 62.0341C34.8778 62.858 35.0672 63.5161 35.5881 64.0085C36.1089 64.5009 36.9801 64.9034 38.2017 65.2159L41.3267 66.0114C43.2017 66.4943 44.5369 67.2187 45.3324 68.1847C46.1373 69.1411 46.4119 70.3864 46.1562 71.9205C45.9479 73.1705 45.4034 74.2879 44.5227 75.2727C43.642 76.2576 42.5152 77.0341 41.142 77.6023C39.7689 78.1705 38.2396 78.4545 36.554 78.4545C34.3097 78.4545 32.5388 77.9716 31.2415 77.0057C29.9441 76.0303 29.2528 74.6193 29.1676 72.7727L32.5199 71.9773C32.6051 73.142 33.0218 74.0227 33.7699 74.6193C34.5275 75.2064 35.5881 75.5 36.9517 75.5C38.5142 75.5 39.8163 75.1686 40.858 74.5057C41.8996 73.8333 42.4915 73.0284 42.6335 72.0909C42.7756 71.3239 42.6241 70.6847 42.179 70.1733C41.7434 69.6619 40.9858 69.2784 39.9062 69.0227L36.4403 68.1705C34.5085 67.6875 33.1544 66.9489 32.3778 65.9545C31.6108 64.9602 31.3551 63.7102 31.6108 62.2045C31.8191 60.9735 32.3494 59.8845 33.2017 58.9375C34.0634 57.9905 35.143 57.2472 36.4403 56.7074C37.7472 56.1676 39.1676 55.8977 40.7017 55.8977C42.8608 55.8977 44.4754 56.3712 45.5455 57.3182C46.6155 58.2557 47.2926 59.5057 47.5767 61.0682ZM68.4751 61.0682L65.2933 61.9205C65.1797 61.4091 64.9808 60.9167 64.6967 60.4432C64.4221 59.9602 63.996 59.5672 63.4183 59.2642C62.8501 58.9517 62.0736 58.7955 61.0888 58.7955C59.7536 58.7955 58.5935 59.1032 57.6087 59.7188C56.6238 60.3248 56.0604 61.0966 55.9183 62.0341C55.7763 62.858 55.9657 63.5161 56.4865 64.0085C57.0073 64.5009 57.8786 64.9034 59.1001 65.2159L62.2251 66.0114C64.1001 66.4943 65.4354 67.2187 66.2308 68.1847C67.0357 69.1411 67.3104 70.3864 67.0547 71.9205C66.8464 73.1705 66.3018 74.2879 65.4212 75.2727C64.5405 76.2576 63.4136 77.0341 62.0405 77.6023C60.6674 78.1705 59.138 78.4545 57.4524 78.4545C55.2081 78.4545 53.4373 77.9716 52.1399 77.0057C50.8426 76.0303 50.1513 74.6193 50.0661 72.7727L53.4183 71.9773C53.5036 73.142 53.9202 74.0227 54.6683 74.6193C55.4259 75.2064 56.4865 75.5 57.8501 75.5C59.4126 75.5 60.7147 75.1686 61.7564 74.5057C62.7981 73.8333 63.3899 73.0284 63.532 72.0909C63.674 71.3239 63.5225 70.6847 63.0774 70.1733C62.6418 69.6619 61.8842 69.2784 60.8047 69.0227L57.3388 68.1705C55.407 67.6875 54.0528 66.9489 53.2763 65.9545C52.5092 64.9602 52.2536 63.7102 52.5092 62.2045C52.7176 60.9735 53.2479 59.8845 54.1001 58.9375C54.9619 57.9905 56.0414 57.2472 57.3388 56.7074C58.6456 56.1676 60.0661 55.8977 61.6001 55.8977C63.7592 55.8977 65.3738 56.3712 66.4439 57.3182C67.514 58.2557 68.1911 59.5057 68.4751 61.0682ZM71.0781 78L74.7145 56.1818H78.0668L74.4304 78H71.0781ZM77.4134 52.4886C76.7599 52.4886 76.1965 52.2661 75.723 51.821C75.259 51.3759 75.027 50.8409 75.027 50.2159C75.027 49.5909 75.259 49.0559 75.723 48.6108C76.1965 48.1657 76.7599 47.9432 77.4134 47.9432C78.0668 47.9432 78.6255 48.1657 79.0895 48.6108C79.563 49.0559 79.7997 49.5909 79.7997 50.2159C79.7997 50.8409 79.563 51.3759 79.0895 51.821C78.6255 52.2661 78.0668 52.4886 77.4134 52.4886ZM98.8658 61.0682L95.6839 61.9205C95.5703 61.4091 95.3714 60.9167 95.0874 60.4432C94.8127 59.9602 94.3866 59.5672 93.8089 59.2642C93.2408 58.9517 92.4643 58.7955 91.4794 58.7955C90.1442 58.7955 88.9841 59.1032 87.9993 59.7188C87.0144 60.3248 86.451 61.0966 86.3089 62.0341C86.1669 62.858 86.3563 63.5161 86.8771 64.0085C87.398 64.5009 88.2692 64.9034 89.4908 65.2159L92.6158 66.0114C94.4908 66.4943 95.826 67.2187 96.6214 68.1847C97.4264 69.1411 97.701 70.3864 97.4453 71.9205C97.237 73.1705 96.6925 74.2879 95.8118 75.2727C94.9311 76.2576 93.8042 77.0341 92.4311 77.6023C91.058 78.1705 89.5286 78.4545 87.843 78.4545C85.5987 78.4545 83.8279 77.9716 82.5305 77.0057C81.2332 76.0303 80.5419 74.6193 80.4567 72.7727L83.8089 71.9773C83.8942 73.142 84.3108 74.0227 85.0589 74.6193C85.8165 75.2064 86.8771 75.5 88.2408 75.5C89.8033 75.5 91.1054 75.1686 92.147 74.5057C93.1887 73.8333 93.7805 73.0284 93.9226 72.0909C94.0646 71.3239 93.9131 70.6847 93.468 70.1733C93.0324 69.6619 92.2749 69.2784 91.1953 69.0227L87.7294 68.1705C85.7976 67.6875 84.4434 66.9489 83.6669 65.9545C82.8999 64.9602 82.6442 63.7102 82.8999 62.2045C83.1082 60.9735 83.6385 59.8845 84.4908 58.9375C85.3525 57.9905 86.4321 57.2472 87.7294 56.7074C89.0362 56.1676 90.4567 55.8977 91.9908 55.8977C94.1499 55.8977 95.7644 56.3712 96.8345 57.3182C97.9046 58.2557 98.5817 59.5057 98.8658 61.0682ZM114.594 56.1818L114.139 59.0227H102.832L103.287 56.1818H114.594ZM107.435 50.9545H110.787L107.321 71.75C107.17 72.697 107.193 73.4072 107.392 73.8807C107.6 74.3447 107.913 74.6572 108.33 74.8182C108.756 74.9697 109.215 75.0455 109.707 75.0455C110.077 75.0455 110.38 75.0265 110.616 74.9886C110.853 74.9413 111.043 74.9034 111.185 74.875L111.412 77.8864C111.156 77.9716 110.811 78.0568 110.375 78.142C109.949 78.2367 109.423 78.2841 108.798 78.2841C107.851 78.2841 106.961 78.0805 106.128 77.6733C105.295 77.2661 104.655 76.6458 104.21 75.8125C103.765 74.9792 103.647 73.928 103.855 72.6591L107.435 50.9545ZM122.364 78.5114C120.981 78.5114 119.769 78.2509 118.727 77.7301C117.686 77.1998 116.914 76.4375 116.412 75.4432C115.91 74.4394 115.773 73.2273 116 71.8068C116.218 70.5568 116.639 69.5436 117.264 68.767C117.889 67.9811 118.647 67.3655 119.537 66.9205C120.437 66.4659 121.402 66.1297 122.435 65.9119C123.476 65.6847 124.513 65.5095 125.545 65.3864C126.89 65.2159 127.984 65.0833 128.827 64.9886C129.67 64.8939 130.304 64.7377 130.73 64.5199C131.156 64.3021 131.417 63.928 131.511 63.3977V63.2841C131.739 61.892 131.554 60.8078 130.957 60.0312C130.361 59.2453 129.295 58.8523 127.761 58.8523C126.17 58.8523 124.84 59.2027 123.77 59.9034C122.7 60.6042 121.909 61.3523 121.398 62.1477L118.443 61.0114C119.22 59.6856 120.148 58.6534 121.227 57.9148C122.307 57.1667 123.438 56.6458 124.622 56.3523C125.806 56.0492 126.947 55.8977 128.045 55.8977C128.746 55.8977 129.537 55.983 130.418 56.1534C131.298 56.3144 132.122 56.6506 132.889 57.1619C133.666 57.6733 134.248 58.4451 134.636 59.4773C135.034 60.5095 135.091 61.892 134.807 63.625L132.42 78H129.068L129.58 75.0455H129.409C129.106 75.5189 128.642 76.0256 128.017 76.5653C127.402 77.1051 126.62 77.5644 125.673 77.9432C124.736 78.322 123.633 78.5114 122.364 78.5114ZM123.33 75.5C124.655 75.5 125.815 75.2396 126.81 74.7188C127.813 74.1979 128.618 73.5256 129.224 72.7017C129.84 71.8778 130.223 71.0114 130.375 70.1023L130.886 67.0341C130.716 67.2045 130.38 67.3608 129.878 67.5028C129.376 67.6354 128.808 67.7538 128.173 67.858C127.548 67.9527 126.938 68.0379 126.341 68.1136C125.754 68.1799 125.28 68.2367 124.92 68.2841C124.03 68.3977 123.183 68.5824 122.378 68.8381C121.582 69.0843 120.91 69.4583 120.361 69.9602C119.821 70.4527 119.485 71.125 119.352 71.9773C119.153 73.142 119.433 74.0227 120.19 74.6193C120.948 75.2064 121.994 75.5 123.33 75.5ZM144.05 64.875L141.891 78H138.539L142.175 56.1818H145.414L144.846 59.5909H145.13C145.812 58.483 146.735 57.5928 147.9 56.9205C149.065 56.2386 150.471 55.8977 152.119 55.8977C153.577 55.8977 154.808 56.2008 155.812 56.8068C156.825 57.4034 157.54 58.3125 157.957 59.5341C158.383 60.7462 158.444 62.2803 158.141 64.1364L155.812 78H152.46L154.732 64.3636C155.016 62.6591 154.794 61.3239 154.065 60.358C153.345 59.392 152.204 58.9091 150.641 58.9091C149.562 58.9091 148.563 59.1411 147.644 59.6051C146.735 60.0691 145.963 60.7462 145.329 61.6364C144.704 62.5265 144.278 63.6061 144.05 64.875ZM175.062 56.1818L174.608 59.0227H163.301L163.756 56.1818H175.062ZM167.903 50.9545H171.256L167.79 71.75C167.638 72.697 167.662 73.4072 167.861 73.8807C168.069 74.3447 168.382 74.6572 168.798 74.8182C169.224 74.9697 169.684 75.0455 170.176 75.0455C170.545 75.0455 170.848 75.0265 171.085 74.9886C171.322 74.9413 171.511 74.9034 171.653 74.875L171.881 77.8864C171.625 77.9716 171.279 78.0568 170.844 78.142C170.418 78.2367 169.892 78.2841 169.267 78.2841C168.32 78.2841 167.43 78.0805 166.597 77.6733C165.763 77.2661 165.124 76.6458 164.679 75.8125C164.234 74.9792 164.116 73.928 164.324 72.6591L167.903 50.9545Z" fill="#33CCCC"/>
</svg>
